<mxfile host="app.diagrams.net" modified="2023-11-02T08:51:03.363Z" agent="Mozilla/5.0 (Windows NT 10.0; Win64; x64) AppleWebKit/537.36 (KHTML, like Gecko) Chrome/117.0.0.0 Safari/537.36" version="22.0.8" etag="u_ZOiBp_U4IA_YVQumIs" type="github">
  <diagram name="Seite-1" id="Q9NfLSZBeVTj6vZU7Mh2">
    <mxGraphModel>
      <root>
        <mxCell id="0" />
        <mxCell id="1" parent="0" />
      </root>
    </mxGraphModel>
  </diagram>
</mxfile>
